<?xml version="1.0" encoding="utf-8"?>
<!-- Generator: Adobe Illustrator 19.2.0, SVG Export Plug-In . SVG Version: 6.00 Build 0)  -->
<svg version="1.1" id="Слой_1" xmlns="http://www.w3.org/2000/svg" xmlns:xlink="http://www.w3.org/1999/xlink" x="0px" y="0px"
	 viewBox="0 0 51.9 55" style="enable-background:new 0 0 51.9 55;" xml:space="preserve">
<style type="text/css">
	.st0{opacity:0.37;enable-background:new    ;}
	.st1{fill:url(#SVGID_1_);stroke:url(#SVGID_2_);stroke-miterlimit:10;}
	.st2{fill:#F7EAB2;}
	.st3{fill:none;}
	.st4{opacity:0.23;fill:#020202;enable-background:new    ;}
	.st5{fill:#FFFFFF;}
	.st6{opacity:0.27;enable-background:new    ;}
</style>
<path class="st0" d="M21,5.5C7.5,8.2-1.2,21.4,1.5,35S17.4,57.2,31,54.5S53.2,38.6,50.5,25C47.8,11.5,34.6,2.8,21,5.5z M22.3,42
	c-2.7,0.5-5.3-1.2-5.9-3.9c-0.5-2.7,1.2-5.3,3.9-5.9c2.7-0.6,5.3,1.2,5.9,3.9S25,41.4,22.3,42z M19.9,30.2c-2.7,0.5-5.3-1.2-5.9-3.9
	c-0.5-2.7,1.2-5.3,3.9-5.9s5.3,1.2,5.9,3.9C24.4,27,22.6,29.7,19.9,30.2z M34.1,39.6c-2.7,0.5-5.3-1.2-5.9-3.9
	c-0.5-2.7,1.2-5.3,3.9-5.9c2.7-0.5,5.3,1.2,5.9,3.9C38.5,36.4,36.8,39,34.1,39.6z M31.7,27.8c-2.7,0.5-5.3-1.2-5.9-3.9
	c-0.5-2.7,1.2-5.3,3.9-5.9c2.7-0.5,5.3,1.2,5.9,3.9C36.1,24.6,34.4,27.3,31.7,27.8z"/>
<g>
	
		<linearGradient id="SVGID_1_" gradientUnits="userSpaceOnUse" x1="-29.9243" y1="8.0199" x2="-29.9243" y2="-41.9904" gradientTransform="matrix(0.9801 -0.1985 -0.1985 -0.9801 51.9633 3.419)">
		<stop  offset="0" style="stop-color:#F1C78A"/>
		<stop  offset="1" style="stop-color:#F6DBA2"/>
	</linearGradient>
	
		<linearGradient id="SVGID_2_" gradientUnits="userSpaceOnUse" x1="0.515" y1="28.9341" x2="51.5013" y2="28.9341" gradientTransform="matrix(1 0 0 -1 0 54.9423)">
		<stop  offset="0" style="stop-color:#F2CF92"/>
		<stop  offset="1" style="stop-color:#F4D69A"/>
	</linearGradient>
	<path class="st1" d="M21,1.5C7.5,4.2-1.2,17.4,1.5,31S17.4,53.2,31,50.5S53.2,34.6,50.5,21C47.8,7.5,34.6-1.2,21,1.5z M22.3,38
		c-2.7,0.5-5.3-1.2-5.9-3.9c-0.5-2.7,1.2-5.3,3.9-5.9s5.3,1.2,5.9,3.9S25,37.4,22.3,38z M19.9,26.2c-2.7,0.5-5.3-1.2-5.9-3.9
		c-0.5-2.7,1.2-5.3,3.9-5.9c2.7-0.5,5.3,1.2,5.9,3.9C24.4,23,22.6,25.7,19.9,26.2z M34.1,35.6c-2.7,0.5-5.3-1.2-5.9-3.9
		c-0.5-2.7,1.2-5.3,3.9-5.9c2.7-0.5,5.3,1.2,5.9,3.9C38.5,32.4,36.8,35,34.1,35.6z M31.7,23.8c-2.7,0.5-5.3-1.2-5.9-3.9
		c-0.5-2.7,1.2-5.3,3.9-5.9c2.7-0.5,5.3,1.2,5.9,3.9C36.1,20.6,34.4,23.3,31.7,23.8z"/>
	<path class="st2" d="M25.9,52c-5.1,0-10-1.5-14.3-4.3C5.8,43.8,1.9,38,0.5,31.2C-2.3,17.1,6.8,3.4,20.8,0.5l0,0
		c14-2.8,27.8,6.3,30.6,20.3c1.4,6.8,0,13.7-3.8,19.5S37.9,50,31.1,51.4C29.4,51.8,27.7,52,25.9,52z M21.2,2.5
		C8.3,5.1-0.1,17.8,2.5,30.8C3.8,37,7.4,42.5,12.7,46s11.7,4.8,18,3.5C37,48.3,42.5,44.6,46,39.3s4.8-11.7,3.5-18
		C46.9,8.3,34.2-0.1,21.2,2.5L21.2,2.5z M21.3,39.1c-1.2,0-2.3-0.3-3.3-1c-1.3-0.9-2.2-2.2-2.6-3.8c-0.3-1.6,0-3.2,0.9-4.5
		c0.9-1.3,2.2-2.2,3.8-2.6c-3.2,0.6-6.4-1.5-7-4.7c-0.7-3.2,1.4-6.4,4.7-7.1c1.6-0.3,3.2,0,4.5,0.9c1.3,0.9,2.2,2.2,2.6,3.8
		c0.3,1.6,0,3.2-0.9,4.5s-2.2,2.2-3.8,2.6c1.6-0.3,3.1,0,4.5,0.9c1.3,0.9,2.2,2.2,2.6,3.8c0.7,3.2-1.4,6.4-4.7,7.1l0,0
		C22.1,39,21.7,39.1,21.3,39.1z M21.3,29.1c-0.3,0-0.5,0-0.8,0.1c-1,0.2-1.9,0.8-2.5,1.7c-0.6,0.9-0.8,2-0.6,3s0.8,1.9,1.7,2.5
		c0.9,0.6,2,0.8,3,0.6c2.2-0.4,3.6-2.6,3.1-4.7c-0.2-1-0.8-1.9-1.7-2.5C22.9,29.3,22.1,29.1,21.3,29.1z M18.9,17.3
		c-0.3,0-0.5,0-0.8,0.1c-2.2,0.4-3.6,2.6-3.1,4.7c0.4,2.2,2.6,3.6,4.7,3.1c1-0.2,1.9-0.8,2.5-1.7c0.6-0.9,0.8-2,0.6-3
		c-0.2-1-0.8-1.9-1.7-2.5C20.5,17.5,19.7,17.3,18.9,17.3z M33.1,36.7c-1.2,0-2.3-0.3-3.3-1c-1.3-0.9-2.2-2.2-2.6-3.8
		c-0.7-3.2,1.4-6.4,4.6-7.1c-3.2,0.6-6.4-1.5-7-4.7c-0.3-1.6,0-3.2,0.9-4.5c0.9-1.3,2.2-2.2,3.8-2.6c3.2-0.7,6.4,1.4,7.1,4.7
		c0.7,3.2-1.4,6.4-4.6,7.1c3.2-0.6,6.4,1.5,7,4.7c0.7,3.2-1.4,6.4-4.7,7.1l0,0C33.9,36.7,33.5,36.7,33.1,36.7z M33.1,26.7
		c-0.3,0-0.5,0-0.8,0.1c-2.2,0.4-3.6,2.6-3.1,4.7c0.2,1,0.8,1.9,1.7,2.5s2,0.8,3,0.6l0,0c1-0.2,1.9-0.8,2.5-1.7s0.8-2,0.6-3
		s-0.8-1.9-1.7-2.5C34.6,26.9,33.9,26.7,33.1,26.7z M30.7,14.9c-0.3,0-0.5,0-0.8,0.1c-1,0.2-1.9,0.8-2.5,1.7s-0.8,2-0.6,3
		c0.4,2.2,2.5,3.6,4.7,3.1c2.2-0.4,3.6-2.6,3.1-4.7C34.2,16.2,32.6,14.9,30.7,14.9z"/>
</g>
<g>
	<line class="st3" x1="17.9" y1="21.3" x2="32.1" y2="31.1"/>
	<path class="st4" d="M32.1,34.6c-0.3,0-0.6-0.1-0.9-0.3l-14.1-9.8c-0.7-0.5-0.9-1.4-0.4-2.1s1.4-0.9,2.1-0.4l14.1,9.8
		c0.7,0.5,0.9,1.4,0.4,2.1C33,34.3,32.5,34.6,32.1,34.6z"/>
	<path class="st5" d="M32.1,32.6c-0.3,0-0.6-0.1-0.9-0.3l-14.1-9.8c-0.7-0.5-0.9-1.4-0.4-2.1s1.4-0.9,2.1-0.4l14.1,9.8
		c0.7,0.5,0.9,1.4,0.4,2.1C33,32.3,32.5,32.6,32.1,32.6z"/>
</g>
<g>
	<path class="st6" d="M20.3,36.6c-0.3,0-0.6-0.1-0.8-0.3c-0.7-0.5-0.9-1.4-0.4-2.1l9.4-13.8c0.5-0.7,1.4-0.9,2.1-0.4
		c0.7,0.5,0.9,1.4,0.4,2.1l-9.4,13.8C21.3,36.3,20.8,36.6,20.3,36.6z"/>
</g>
<g>
	<line class="st3" x1="21.3" y1="33.1" x2="30.7" y2="19.3"/>
	<path class="st5" d="M21.3,34.6c-0.3,0-0.6-0.1-0.8-0.3c-0.7-0.5-0.9-1.4-0.4-2.1l9.4-13.8c0.5-0.7,1.4-0.9,2.1-0.4
		s0.9,1.4,0.4,2.1l-9.4,13.8C22.3,34.3,21.8,34.6,21.3,34.6z"/>
</g>
</svg>
