<?xml version="1.0" encoding="utf-8"?>
<!-- Generator: Adobe Illustrator 19.2.0, SVG Export Plug-In . SVG Version: 6.00 Build 0)  -->
<svg version="1.1" id="Слой_1" xmlns="http://www.w3.org/2000/svg" xmlns:xlink="http://www.w3.org/1999/xlink" x="0px" y="0px"
	 viewBox="0 0 53.9 53.5" style="enable-background:new 0 0 53.9 53.5;" xml:space="preserve">
<style type="text/css">
	.st0{opacity:0.37;}
	.st1{fill:url(#SVGID_1_);}
	.st2{fill:#EDD243;}
</style>
<path class="st0" d="M35.3,4.4C22,0.8,8.3,8.7,4.7,22S9,49.1,22.3,52.7C35.7,56.3,49.4,48.4,53,35S48.7,8,35.3,4.4z M20.2,37.6
	c-2.7-0.7-4.2-3.5-3.5-6.1c0.7-2.7,3.5-4.2,6.1-3.5c2.7,0.7,4.2,3.5,3.5,6.1C25.6,36.7,22.9,38.3,20.2,37.6z M23.3,26
	c-2.7-0.7-4.2-3.5-3.5-6.1c0.7-2.7,3.5-4.2,6.1-3.5c2.7,0.7,4.2,3.5,3.5,6.1C28.7,25.1,26,26.7,23.3,26z M31.8,40.7
	c-2.7-0.7-4.2-3.5-3.5-6.1c0.7-2.7,3.5-4.2,6.1-3.5c2.7,0.7,4.2,3.5,3.5,6.1C37.2,39.8,34.4,41.4,31.8,40.7z M34.9,29.1
	c-2.7-0.7-4.2-3.5-3.5-6.1c0.7-2.7,3.5-4.2,6.1-3.5c2.7,0.7,4.2,3.5,3.5,6.1C40.3,28.3,37.6,29.8,34.9,29.1z"/>
<g>
	
		<linearGradient id="SVGID_1_" gradientUnits="userSpaceOnUse" x1="25.0388" y1="1.7609" x2="25.0388" y2="51.7609" gradientTransform="matrix(0.9656 0.26 -0.26 0.9656 8.2848 -6.8482)">
		<stop  offset="0" style="stop-color:#EBAD33"/>
		<stop  offset="1" style="stop-color:#D3992C"/>
	</linearGradient>
	<path class="st1" d="M32,1.4C18.7-2.2,5,5.7,1.4,19S5.7,46.1,19,49.6c13.3,3.6,27.1-4.3,30.6-17.6C53.2,18.7,45.3,5,32,1.4z
		 M16.8,34.6c-2.7-0.7-4.2-3.5-3.5-6.1c0.7-2.7,3.5-4.2,6.1-3.5c2.7,0.7,4.2,3.5,3.5,6.1C22.3,33.7,19.5,35.3,16.8,34.6z M20,23
		c-2.7-0.7-4.2-3.5-3.5-6.1c0.7-2.7,3.5-4.2,6.1-3.5c2.7,0.7,4.2,3.5,3.5,6.1C25.4,22.1,22.6,23.7,20,23z M28.4,37.7
		c-2.7-0.7-4.2-3.5-3.5-6.1c0.7-2.7,3.5-4.2,6.1-3.5c2.7,0.7,4.2,3.5,3.5,6.1C33.8,36.8,31.1,38.4,28.4,37.7z M31.6,26.1
		c-2.7-0.7-4.2-3.5-3.5-6.1c0.7-2.7,3.5-4.2,6.1-3.5c2.7,0.7,4.2,3.5,3.5,6.1C37,25.2,34.2,26.8,31.6,26.1z"/>
	<path class="st2" d="M25.5,51c-2.2,0-4.5-0.3-6.7-0.9C5.3,46.5-2.8,32.4,0.9,18.9C4.5,5.3,18.6-2.8,32.1,0.9
		c13.6,3.7,21.6,17.7,18,31.3c-1.8,6.6-6,12.1-11.9,15.5C34.3,49.9,30,51,25.5,51z M25.5,1C14.7,1,4.8,8.2,1.8,19.1
		c-3.5,13,4.2,26.5,17.3,30c6.3,1.7,12.9,0.8,18.6-2.4c5.7-3.3,9.7-8.5,11.4-14.9c3.5-13-4.2-26.5-17.3-30C29.7,1.3,27.6,1,25.5,1z
		 M29.7,38.4c-0.5,0-1-0.1-1.4-0.2c-1.4-0.4-2.6-1.3-3.3-2.6c-0.7-1.3-0.9-2.8-0.5-4.2c0.8-2.9,3.8-4.7,6.7-3.9
		c1.4,0.4,2.6,1.3,3.3,2.6c0.7,1.3,0.9,2.8,0.5,4.2c-0.4,1.4-1.3,2.6-2.6,3.3C31.6,38.1,30.7,38.4,29.7,38.4z M29.7,28.4
		c-2,0-3.8,1.3-4.3,3.3c-0.3,1.2-0.2,2.4,0.4,3.4c0.6,1,1.6,1.8,2.7,2.1h0c1.2,0.3,2.4,0.2,3.4-0.4c1-0.6,1.8-1.6,2.1-2.7
		c0.3-1.2,0.2-2.4-0.4-3.4s-1.6-1.8-2.7-2.1C30.5,28.4,30.1,28.4,29.7,28.4z M18.1,35.2c-0.5,0-1-0.1-1.4-0.2h0
		c-2.9-0.8-4.7-3.8-3.9-6.7c0.8-2.9,3.8-4.7,6.7-3.9c1.4,0.4,2.6,1.3,3.3,2.6c0.7,1.3,0.9,2.8,0.5,4.2
		C22.8,33.6,20.6,35.2,18.1,35.2z M17,34.1c2.4,0.6,4.9-0.8,5.5-3.2c0.3-1.2,0.2-2.4-0.4-3.4c-0.6-1-1.6-1.8-2.7-2.1
		c-2.4-0.6-4.9,0.8-5.5,3.2C13.2,31,14.6,33.4,17,34.1L17,34.1z M32.9,26.8c-0.5,0-1-0.1-1.4-0.2l0,0c-2.9-0.8-4.7-3.8-3.9-6.7
		c0.4-1.4,1.3-2.6,2.6-3.3c1.3-0.7,2.8-0.9,4.2-0.5c2.9,0.8,4.7,3.8,3.9,6.7C37.5,25.2,35.3,26.8,32.9,26.8z M31.7,25.6
		c2.4,0.6,4.9-0.8,5.5-3.2c0.3-1.2,0.2-2.4-0.4-3.4c-0.6-1-1.6-1.8-2.7-2.1c-1.2-0.3-2.4-0.2-3.4,0.4c-1,0.6-1.8,1.6-2.1,2.7
		C27.9,22.5,29.3,25,31.7,25.6L31.7,25.6z M21.3,23.7c-0.5,0-1-0.1-1.4-0.2c-2.9-0.8-4.7-3.8-3.9-6.7c0.8-2.9,3.8-4.7,6.7-3.9
		c1.4,0.4,2.6,1.3,3.3,2.6c0.7,1.3,0.9,2.8,0.5,4.2C25.9,22,23.7,23.7,21.3,23.7z M21.3,13.6c-2,0-3.8,1.3-4.3,3.3
		c-0.6,2.4,0.8,4.9,3.2,5.5c1.2,0.3,2.4,0.2,3.4-0.4c1-0.6,1.8-1.6,2.1-2.7c0.3-1.2,0.2-2.4-0.4-3.4c-0.6-1-1.6-1.8-2.7-2.1
		C22,13.7,21.7,13.6,21.3,13.6z"/>
</g>
</svg>
