<?xml version="1.0" encoding="utf-8"?>
<!-- Generator: Adobe Illustrator 19.2.0, SVG Export Plug-In . SVG Version: 6.00 Build 0)  -->
<svg version="1.1" id="Слой_1" xmlns="http://www.w3.org/2000/svg" xmlns:xlink="http://www.w3.org/1999/xlink" x="0px" y="0px"
	 viewBox="0 0 53.4 51.3" style="enable-background:new 0 0 53.4 51.3;" xml:space="preserve">
<style type="text/css">
	.st0{opacity:0.3;}
	.st1{fill:#FFFFFF;}
	.st2{fill:#C6C6C6;}
	.st3{fill:#AEAEAE;}
	.st4{fill:#4D91A9;}
	.st5{fill:#D84A2B;}
	.st6{fill:#EF6A54;}
	.st7{fill:#66AFC3;}
</style>
<ellipse transform="matrix(0.4616 -0.8871 0.8871 0.4616 -8.0294 39.3969)" class="st0" cx="28.4" cy="26.3" rx="25" ry="25"/>
<ellipse transform="matrix(0.4616 -0.8871 0.8871 0.4616 -8.7188 35.6451)" class="st1" cx="25" cy="25" rx="25" ry="25"/>
<ellipse transform="matrix(0.4616 -0.8871 0.8871 0.4616 -8.7188 35.6451)" class="st2" cx="25" cy="25" rx="20" ry="20"/>
<path class="st3" d="M10.8,17.6C5.7,27.4,9,37,15.8,42.7C6,37.6,2.2,25.6,7.3,15.8s17.2-13.6,27-8.5C25.4,5,15.9,7.8,10.8,17.6z"/>
<polygon class="st4" points="30.4,27.8 16.1,42 19.6,22.2 "/>
<polygon class="st5" points="19.5,22.4 33.8,8.2 30.3,28 "/>
<polygon class="st6" points="19.5,22.4 33.8,8.2 25,25.2 "/>
<polygon class="st7" points="19.6,22.2 16.2,42 25.1,25.1 "/>
</svg>
