<?xml version="1.0" encoding="utf-8"?>
<!-- Generator: Adobe Illustrator 19.2.0, SVG Export Plug-In . SVG Version: 6.00 Build 0)  -->
<svg version="1.1" id="Слой_1" xmlns="http://www.w3.org/2000/svg" xmlns:xlink="http://www.w3.org/1999/xlink" x="0px" y="0px"
	 viewBox="0 0 60 60" style="enable-background:new 0 0 60 60;" xml:space="preserve">
<style type="text/css">
	.st0{fill:#F4F4F4;}
	.st1{fill:#40B6B3;}
	.st2{fill-rule:evenodd;clip-rule:evenodd;fill:#FFFFFF;}
</style>
<path class="st0" d="M54,60H6c-3.3,0-6-2.7-6-6l0.9-10.4c0.1-1.1,0.1-2.1,0-3.2L0,28.7V6c0-3.3,2.7-6,6-6h48c3.3,0,6,2.7,6,6
	l-0.9,19.7c0,0.8,0,1.7,0,2.5L60,54C60,57.3,57.3,60,54,60z"/>
<path class="st1" d="M49,55l-7.9-0.8c-1.1-0.1-2.1-0.1-3.2-0.1L20.9,55H11c-3.3,0-6-2.7-6-6l1-12.1c0-0.3,0-0.6,0-0.9L5,21.3V11
	c0-3.3,2.7-6,6-6h38c3.3,0,6,2.7,6,6v0c-0.7,2.7-1,5.5-0.9,8.2L55,49C55,52.3,52.3,55,49,55z"/>
<path class="st2" d="M42.4,21.8c0,0.9-0.7,1.7-1.7,1.7h-2.5c-0.9,0-1.6-0.7-1.6-1.7V19c0-0.7,0.5-1.3,1.1-1.6h3
	c0.9,0,1.7,0.7,1.7,1.6V21.8L42.4,21.8z M42.4,40.9c0,0.9-0.7,1.6-1.7,1.6H19.4c-0.9,0-1.7-0.7-1.7-1.6V27h2.7c-0.3,1-0.5,2-0.5,3
	c0,5.5,4.5,10,10,10c5.5,0,10-4.5,10-10c0-1.1-0.2-2.1-0.5-3h2.9V40.9L42.4,40.9z M36.6,30c0-1.1-0.3-2.1-0.7-3
	c-1.1-2.1-3.3-3.6-5.8-3.6c-2.5,0-4.7,1.4-5.8,3.6c-0.5,0.9-0.7,1.9-0.7,3c0,3.6,3,6.6,6.6,6.6S36.6,33.6,36.6,30L36.6,30z M42,13.9
	H18c-2.2,0-4,1.8-4,4v24.2c0,2.2,1.8,4,4,4H42c2.2,0,4-1.8,4-4V17.9C46,15.7,44.2,13.9,42,13.9z"/>
</svg>
