<?xml version="1.0" encoding="utf-8"?>
<!-- Generator: Adobe Illustrator 19.2.0, SVG Export Plug-In . SVG Version: 6.00 Build 0)  -->
<svg version="1.1" id="Слой_1" xmlns="http://www.w3.org/2000/svg" xmlns:xlink="http://www.w3.org/1999/xlink" x="0px" y="0px"
	 viewBox="0 0 45.3 29" style="enable-background:new 0 0 45.3 29;" xml:space="preserve">
<style type="text/css">
	.st0{fill:#FFFFFF;}
</style>
<path class="st0" d="M42.3,5l-2.1,0.9C40,6,37.9,6,37.8,6H3C1.3,6,0.5,5.4,0,3v0c0-1.6,1.3-2,3-2l39.3-1c1.6,0,3,1.3,3,3v0
	C45.3,4.6,44.6,5,42.3,5z"/>
<path class="st0" d="M43.2,18l-3.1-0.1C40,18,37.9,18,37.8,18H3c-1.6,0-2.5-0.6-3-3v0c0-1.6,2.2-2.4,6-2l32.3-1c3,0.1,7,0.1,7,3v0
	C45.3,16.6,45.5,18,43.2,18z"/>
<path class="st0" d="M43.2,29l-3.1-0.1C40,29,37.9,29,37.8,29H3c-1.6,0-2.5-0.6-3-3v0c0-1.6,1.9-3.1,6-3h32.3c3,0.1,7,0.1,7,3v0
	C45.3,27.6,45.5,29,43.2,29z"/>
</svg>
