<?xml version="1.0" encoding="utf-8"?>
<!-- Generator: Adobe Illustrator 19.2.0, SVG Export Plug-In . SVG Version: 6.00 Build 0)  -->
<svg version="1.1" id="Capa_1" xmlns="http://www.w3.org/2000/svg" xmlns:xlink="http://www.w3.org/1999/xlink" x="0px" y="0px"
	 viewBox="0 0 530.9 566.6" style="enable-background:new 0 0 530.9 566.6;" xml:space="preserve">
<style type="text/css">
	.st0{fill:#FFFFFF;}
	.st1{fill:#D26A55;}
</style>
<g>
	<path class="st0" d="M367.7,57c-3.9-7.7-10.8-13.3-18.8-15.7c0.1-0.4,0.3-0.8,0.4-1.2c2.6-7.6,2-16.1-1.6-23.3
		c-3.6-7.2-10-12.8-17.6-15.3c-7.6-2.5-16.1-2-23.3,1.6c-7.2,3.6-12.8,10-15.3,17.6c-0.2,0.7-0.5,1.5-0.7,2.2
		c-8-3.4-17.4-3.3-25.5,0.8c-8.1,4-13.8,11.4-15.9,19.9c-8.1-3.4-17.4-3.3-25.5,0.8c-8.1,4-13.8,11.4-15.9,19.9
		c-8.1-3.4-17.4-3.3-25.5,0.8c-8.1,4-13.8,11.4-15.9,19.9c-8.1-3.4-17.4-3.3-25.5,0.8c-8.1,4-13.8,11.4-15.9,19.9
		c-8.1-3.4-17.4-3.3-25.5,0.8c-8.1,4-13.8,11.4-15.9,19.9c-8-3.4-17.4-3.3-25.5,0.8c-8.1,4-13.8,11.4-15.9,19.9
		c-0.7-0.3-1.5-0.6-2.2-0.8c-7.6-2.5-16.1-2-23.3,1.6c-7.2,3.6-12.8,10-15.3,17.6c-2.6,7.6-2,16.1,1.6,23.3
		c3.6,7.2,10,12.8,17.6,15.3c0.4,0.1,0.8,0.3,1.2,0.4c-3,7.8-2.7,16.7,1.2,24.4c3.9,7.8,10.8,13.3,18.8,15.7
		c-3,7.8-2.7,16.7,1.2,24.5S54,282.2,62,284.5c-3,7.8-2.7,16.7,1.2,24.5c3.9,7.8,10.8,13.3,18.8,15.7c-3,7.8-2.7,16.7,1.2,24.5
		c3.9,7.8,10.8,13.3,18.8,15.7c-3,7.8-2.7,16.7,1.2,24.5c3.9,7.8,10.8,13.3,18.8,15.7c-3,7.8-2.7,16.7,1.2,24.5
		c3.9,7.8,10.8,13.3,18.8,15.7c-3,7.8-2.7,16.7,1.2,24.5c3.9,7.8,10.8,13.3,18.8,15.7c-3,7.8-2.7,16.7,1.2,24.5
		c3.9,7.7,10.8,13.3,18.8,15.7c-0.1,0.4-0.3,0.8-0.4,1.2c-2.5,7.6-2,16.1,1.6,23.3c3.6,7.2,10,12.8,17.6,15.3
		c7.6,2.5,16.1,2,23.3-1.6c7.2-3.6,12.8-10,15.3-17.6c0.2-0.7,0.5-1.5,0.7-2.3c8,3.4,17.4,3.2,25.5-0.8c8.1-4,13.8-11.4,15.9-19.9
		c8.1,3.4,17.4,3.3,25.5-0.8c8.1-4,13.8-11.4,15.9-19.9c8.1,3.4,17.4,3.3,25.5-0.8c8.1-4,13.8-11.4,16-19.9
		c8.1,3.4,17.4,3.3,25.5-0.8c8.1-4,13.8-11.4,15.9-19.9c8.1,3.4,17.4,3.3,25.5-0.8c8.1-4,13.8-11.4,15.9-19.9
		c8.1,3.4,17.4,3.3,25.5-0.8c8.1-4,13.8-11.4,15.9-19.9c0.7,0.3,1.4,0.6,2.2,0.8c7.6,2.6,16.1,2,23.3-1.6c7.2-3.6,12.8-10,15.3-17.6
		c2.6-7.6,2-16.1-1.6-23.3c-3.6-7.2-10-12.8-17.6-15.3c-0.4-0.1-0.8-0.3-1.2-0.4c3-7.8,2.7-16.7-1.2-24.4
		c-3.9-7.8-10.8-13.3-18.8-15.7c3-7.8,2.7-16.7-1.2-24.5c-3.9-7.8-10.8-13.3-18.8-15.7c3-7.8,2.7-16.7-1.2-24.5
		c-3.9-7.8-10.8-13.3-18.8-15.7c3-7.8,2.7-16.7-1.2-24.5c-3.9-7.8-10.8-13.3-18.8-15.7c3-7.8,2.7-16.7-1.2-24.5
		c-3.9-7.8-10.8-13.3-18.8-15.7c3-7.8,2.7-16.7-1.2-24.5c-3.9-7.8-10.8-13.3-18.8-15.7c3-7.8,2.7-16.7-1.2-24.5
		c-3.9-7.8-10.8-13.3-18.8-15.7C371.9,73.6,371.6,64.8,367.7,57z"/>
</g>
<path class="st1" d="M493.6,395.3L220.3,531.5c-5.6,2.8-12.4,0.5-15.2-5.1L35,185.2c-2.8-5.6-0.5-12.4,5.1-15.2L313.3,33.7
	c5.6-2.8,12.4-0.5,15.2,5.1l170.1,341.3C501.4,385.7,499.1,392.5,493.6,395.3z"/>
<g>
	<path class="st0" d="M281.7,293.8c40.6,19.3,48.9-49.3,29.5-71.8C276.4,156.2,165,194.2,190,293c23.6,92.5,124.8,76,170.7-2.8
		c7-10.5,24.6-8.2,24,5.9c-49.3,97.8-176.4,117.2-213.4,0.1c-31.5-96.1,81.3-180.5,154.3-80.4c29.3,79.9-14.7,99.8-42.6,94.2
		c-6.1,16.5-26.6,24.1-46.5,10.6c-32.8-16.4-28.5-85.3,19.7-69.2C270.2,259.4,277.4,284.5,281.7,293.8z M233.9,269.6
		c-24.3,30.6,34.7,63.2,38.2,30.2C268.8,289.1,251.4,255.3,233.9,269.6z"/>
</g>
</svg>
