<?xml version="1.0" encoding="utf-8"?>
<!-- Generator: Adobe Illustrator 19.2.0, SVG Export Plug-In . SVG Version: 6.00 Build 0)  -->
<svg version="1.1" id="Слой_1" xmlns="http://www.w3.org/2000/svg" xmlns:xlink="http://www.w3.org/1999/xlink" x="0px" y="0px"
	 viewBox="0 0 53.5 53.5" style="enable-background:new 0 0 53.5 53.5;" xml:space="preserve">
<style type="text/css">
	.st0{opacity:0.37;}
	.st1{fill:url(#SVGID_1_);}
	.st2{fill:#FFFFFF;}
</style>
<path class="st0" d="M23.5,4C10,6.7,1.3,19.9,4,33.5S19.9,55.7,33.5,53S55.7,37.1,53,23.5C50.3,10,37.1,1.3,23.5,4z M24.8,40.5
	c-2.7,0.5-5.3-1.2-5.9-3.9c-0.5-2.7,1.2-5.3,3.9-5.9s5.3,1.2,5.9,3.9C29.3,37.3,27.5,39.9,24.8,40.5z M22.4,28.7
	c-2.7,0.5-5.3-1.2-5.9-3.9c-0.5-2.7,1.2-5.3,3.9-5.9s5.3,1.2,5.9,3.9C26.9,25.5,25.1,28.2,22.4,28.7z M36.6,38.1
	c-2.7,0.5-5.3-1.2-5.9-3.9c-0.5-2.7,1.2-5.3,3.9-5.9c2.7-0.5,5.3,1.2,5.9,3.9C41,34.9,39.3,37.5,36.6,38.1z M34.2,26.3
	c-2.7,0.5-5.3-1.2-5.9-3.9c-0.5-2.7,1.2-5.3,3.9-5.9c2.7-0.5,5.3,1.2,5.9,3.9C38.6,23.1,36.9,25.8,34.2,26.3z"/>
<g>
	
		<linearGradient id="SVGID_1_" gradientUnits="userSpaceOnUse" x1="25.503" y1="0.5025" x2="25.503" y2="50.5025" gradientTransform="matrix(0.9801 -0.1985 0.1985 0.9801 -4.5539 5.5685)">
		<stop  offset="0" style="stop-color:#FFFFFF"/>
		<stop  offset="1" style="stop-color:#CCCCCC"/>
	</linearGradient>
	<path class="st1" d="M20.5,1C7,3.7-1.7,16.9,1,30.5S16.9,52.7,30.5,50S52.7,34.1,50,20.5C47.3,7,34.1-1.7,20.5,1z M21.8,37.5
		c-2.7,0.5-5.3-1.2-5.9-3.9c-0.5-2.7,1.2-5.3,3.9-5.9s5.3,1.2,5.9,3.9C26.3,34.3,24.5,36.9,21.8,37.5z M19.4,25.7
		c-2.7,0.5-5.3-1.2-5.9-3.9c-0.5-2.7,1.2-5.3,3.9-5.9c2.7-0.5,5.3,1.2,5.9,3.9C23.9,22.5,22.1,25.2,19.4,25.7z M33.6,35.1
		c-2.7,0.5-5.3-1.2-5.9-3.9c-0.5-2.7,1.2-5.3,3.9-5.9c2.7-0.5,5.3,1.2,5.9,3.9C38,31.9,36.3,34.5,33.6,35.1z M31.2,23.3
		c-2.7,0.5-5.3-1.2-5.9-3.9c-0.5-2.7,1.2-5.3,3.9-5.9c2.7-0.5,5.3,1.2,5.9,3.9C35.6,20.1,33.9,22.8,31.2,23.3z"/>
	<path class="st2" d="M25.5,51c-5,0-9.8-1.5-14-4.3C5.7,43,1.9,37.2,0.5,30.6C-2.3,16.8,6.7,3.3,20.4,0.5l0,0
		c13.8-2.8,27.3,6.2,30.1,19.9c1.4,6.7,0,13.5-3.7,19.2c-3.8,5.7-9.5,9.5-16.2,10.9C28.9,50.8,27.1,51,25.5,51z M20.6,1.5
		C7.4,4.2-1.2,17.1,1.5,30.4c1.3,6.4,5,11.9,10.5,15.6c5.5,3.6,12,4.9,18.4,3.6c6.4-1.3,11.9-5,15.6-10.5c3.6-5.5,4.9-12,3.6-18.4
		C46.8,7.4,33.9-1.2,20.6,1.5L20.6,1.5z M20.8,38.1c-1.1,0-2.1-0.3-3-0.9c-1.2-0.8-2.1-2.1-2.4-3.5c-0.3-1.4,0-2.9,0.8-4.1
		c0.8-1.2,2.1-2.1,3.5-2.4c1.4-0.3,2.9,0,4.1,0.8c1.2,0.8,2.1,2.1,2.4,3.5c0.6,3-1.3,5.9-4.3,6.5l0,0C21.5,38,21.2,38.1,20.8,38.1z
		 M20.8,28.1c-0.3,0-0.6,0-0.9,0.1c-1.2,0.2-2.2,0.9-2.9,1.9c-0.7,1-0.9,2.2-0.7,3.4c0.2,1.2,0.9,2.2,1.9,2.9c1,0.7,2.2,0.9,3.4,0.7
		l0,0c2.4-0.5,4-2.9,3.5-5.3c-0.2-1.2-0.9-2.2-1.9-2.9C22.6,28.3,21.7,28.1,20.8,28.1z M32.6,35.7c-1.1,0-2.1-0.3-3-0.9
		c-1.2-0.8-2.1-2.1-2.4-3.5c-0.6-3,1.3-5.9,4.3-6.5c1.4-0.3,2.9,0,4.1,0.8c1.2,0.8,2.1,2.1,2.4,3.5c0.3,1.4,0,2.9-0.8,4.1
		c-0.8,1.2-2.1,2.1-3.5,2.4l0,0C33.3,35.7,32.9,35.7,32.6,35.7z M32.6,25.7c-0.3,0-0.6,0-0.9,0.1c-2.4,0.5-4,2.9-3.5,5.3
		c0.2,1.2,0.9,2.2,1.9,2.9c1,0.7,2.2,0.9,3.4,0.7l0,0c2.4-0.5,4-2.9,3.5-5.3c-0.2-1.2-0.9-2.2-1.9-2.9
		C34.3,25.9,33.5,25.7,32.6,25.7z M18.4,26.3c-2.6,0-4.9-1.8-5.4-4.4c-0.6-3,1.3-5.9,4.3-6.5c1.4-0.3,2.9,0,4.1,0.8
		c1.2,0.8,2.1,2.1,2.4,3.5s0,2.9-0.8,4.1c-0.8,1.2-2.1,2.1-3.5,2.4C19.2,26.3,18.8,26.3,18.4,26.3z M18.4,16.3c-0.3,0-0.6,0-0.9,0.1
		c-2.4,0.5-4,2.9-3.5,5.3c0.5,2.4,2.9,4,5.3,3.5c1.2-0.2,2.2-0.9,2.9-1.9c0.7-1,0.9-2.2,0.7-3.4c-0.2-1.2-0.9-2.2-1.9-2.9
		C20.2,16.6,19.3,16.3,18.4,16.3z M30.2,23.9c-2.6,0-4.9-1.8-5.4-4.4c-0.3-1.4,0-2.9,0.8-4.1c0.8-1.2,2.1-2.1,3.5-2.4
		c3-0.6,5.9,1.3,6.5,4.3c0.6,3-1.3,5.9-4.3,6.5l0,0C30.9,23.9,30.6,23.9,30.2,23.9z M30.2,13.9c-0.3,0-0.6,0-0.9,0.1
		c-1.2,0.2-2.2,0.9-2.9,1.9c-0.7,1-0.9,2.2-0.7,3.4c0.5,2.4,2.9,4,5.3,3.5l0,0c2.4-0.5,4-2.9,3.5-5.3C34.2,15.4,32.3,13.9,30.2,13.9
		z"/>
</g>
</svg>
