<?xml version="1.0" encoding="utf-8"?>
<!-- Generator: Adobe Illustrator 19.2.0, SVG Export Plug-In . SVG Version: 6.00 Build 0)  -->
<svg version="1.1" id="Слой_1" xmlns="http://www.w3.org/2000/svg" xmlns:xlink="http://www.w3.org/1999/xlink" x="0px" y="0px"
	 viewBox="0 0 53.5 53.5" style="enable-background:new 0 0 53.5 53.5;" xml:space="preserve">
<style type="text/css">
	.st0{opacity:0.37;enable-background:new    ;}
	.st1{fill:url(#SVGID_1_);}
	.st2{fill:#D57373;}
	.st3{fill:none;}
</style>
<path class="st0" d="M23.5,4C10,6.7,1.3,19.9,4,33.5S19.9,55.7,33.5,53S55.7,37.1,53,23.5C50.3,10,37.1,1.3,23.5,4z"/>
<g>
	
		<linearGradient id="SVGID_1_" gradientUnits="userSpaceOnUse" x1="-30.4106" y1="8.7123" x2="-30.4106" y2="-41.2979" gradientTransform="matrix(0.9801 -0.1985 -0.1985 -0.9801 52.0713 3.495)">
		<stop  offset="0" style="stop-color:#E57575"/>
		<stop  offset="1" style="stop-color:#AF4747"/>
	</linearGradient>
	<path class="st1" d="M20.5,1C7,3.7-1.7,16.9,1,30.5S16.9,52.7,30.5,50S52.7,34.1,50,20.5C47.3,7,34.1-1.7,20.5,1z"/>
	<path class="st2" d="M25.5,51c-5,0-9.8-1.5-14-4.3c-5.8-3.7-9.6-9.5-11-16.1C-2.3,16.8,6.7,3.3,20.4,0.5l0,0
		c13.8-2.8,27.3,6.2,30.1,19.9c1.4,6.7,0,13.5-3.7,19.2c-3.8,5.7-9.5,9.5-16.2,10.9C28.9,50.8,27.1,51,25.5,51z M20.6,1.5
		C7.4,4.2-1.2,17.1,1.5,30.4C2.8,36.8,6.5,42.3,12,46c5.5,3.6,12,4.9,18.4,3.6c6.4-1.3,11.9-5,15.6-10.5c3.6-5.5,4.9-12,3.6-18.4
		C46.8,7.4,33.9-1.2,20.6,1.5L20.6,1.5z"/>
</g>
<g>
	<line class="st3" x1="18.4" y1="20.8" x2="32.6" y2="30.6"/>
</g>
<g>
	<path class="st3" d="M30.2,18.8"/>
	<path class="st3" d="M20.8,32.6"/>
</g>
</svg>
