<?xml version="1.0" encoding="utf-8"?>
<!-- Generator: Adobe Illustrator 19.2.0, SVG Export Plug-In . SVG Version: 6.00 Build 0)  -->
<svg version="1.1" id="Слой_1" xmlns="http://www.w3.org/2000/svg" xmlns:xlink="http://www.w3.org/1999/xlink" x="0px" y="0px"
	 viewBox="0 0 56.2 47.2" style="enable-background:new 0 0 56.2 47.2;" xml:space="preserve">
<style type="text/css">
	.st0{fill:#EAEAEA;}
	.st1{fill:#3F3F3F;}
	.st2{fill:#5FD9D8;}
</style>
<path class="st0" d="M1.5,47.2c-0.8,0-1.5-0.6-1.5-1.4c-0.3-8.6,6.9-12.4,10.8-13.2c0.8-0.2,1.6,0.3,1.8,1.2
	c0.2,0.8-0.3,1.6-1.2,1.8c-0.4,0.1-8.8,2-8.4,10.2C3,46.5,2.4,47.2,1.5,47.2C1.6,47.2,1.5,47.2,1.5,47.2z"/>
<g>
	<path class="st0" d="M28.4,22c1.7,2.5,7.8,1.3,13.4-2.6s8.6-8.2,7.5-10.9l-1.1-2.7L27.3,19.4L28.4,22z"/>
	<path class="st1" d="M31.7,23.8c-1.7,0-3-0.5-3.7-1.5l-0.1-0.1l-1.2-3L48.4,5.1l1.3,3.3c1.2,2.9-1.7,7.3-7.7,11.5
		c-2.8,1.9-5.8,3.3-8.4,3.8C33,23.8,32.3,23.8,31.7,23.8z M28.8,21.8c0.7,1,2.4,1.3,4.7,0.9c2.5-0.5,5.3-1.8,8-3.6
		c5.5-3.8,8.3-7.8,7.3-10.3L48,6.6l-20,13L28.8,21.8z"/>
</g>
<g>
	
		<ellipse transform="matrix(0.8208 -0.5712 0.5712 0.8208 -1.140128e-02 23.4691)" class="st0" cx="37.4" cy="11.8" rx="12.5" ry="5.5"/>
	<path class="st1" d="M30.5,20.7c-1.7,0-3-0.5-3.7-1.5C24.8,16.4,28,11,34,6.8c6-4.2,12.2-5.2,14.1-2.5c1.9,2.8-1.2,8.2-7.2,12.4
		C37.1,19.3,33.3,20.7,30.5,20.7z M44.4,3.8c-2.6,0-6.3,1.4-9.9,3.8c-5.3,3.7-8.5,8.7-7,11c1.6,2.2,7.4,1,12.7-2.7
		c5.3-3.7,8.5-8.7,7-11C46.7,4.1,45.7,3.8,44.4,3.8z"/>
</g>
<g>
	<path class="st0" d="M7.4,44.8c2.1,2.3,7.9,0.3,12.9-4.4s7.4-9.3,6-11.8l-1.4-2.5L6,42.3L7.4,44.8z"/>
	<path class="st1" d="M9.9,46.3c-1.2,0-2.2-0.4-2.9-1.1L7,45.1l-1.6-2.8L25,25.4l1.7,3.1c1.6,2.7-0.7,7.5-6.1,12.4
		C16.9,44.3,12.8,46.3,9.9,46.3z M7.8,44.5c1.9,1.9,7.4-0.1,12.2-4.4c4.9-4.5,7.2-8.9,5.9-11.2l-1.1-2L6.6,42.5L7.8,44.5z"/>
</g>
<g>
	<ellipse transform="matrix(0.7373 -0.6755 0.6755 0.7373 -18.668 18.8995)" class="st0" cx="15" cy="33.5" rx="12.5" ry="5.5"/>
	<path class="st1" d="M8.3,43.3c-1.2,0-2.2-0.4-2.9-1.1c-2.3-2.5,0.1-8.3,5.5-13.2c5.4-4.9,11.4-6.8,13.7-4.3c1.1,1.2,1.2,3.3,0,5.9
		c-1.1,2.4-3,5-5.5,7.3c-2.5,2.3-5.3,4-7.8,4.9C10.2,43.1,9.2,43.3,8.3,43.3z M21.6,24.6c-2.6,0-6.5,1.9-10.1,5.2
		c-4.8,4.4-7.3,9.8-5.4,11.8c0.8,0.9,2.6,1,4.8,0.3c2.4-0.8,5-2.5,7.4-4.7l0,0c2.4-2.2,4.3-4.7,5.3-7c0.9-2.1,1-3.9,0.1-4.8
		C23.3,24.8,22.6,24.6,21.6,24.6z"/>
</g>
<g>
	<path class="st2" d="M7.6,36.4l-1.1-1.3c-0.6-0.7-0.4-1.9,0.5-2.6l7.9-10.7c3.2-4.3,7.2-7.9,11.8-10.7l4.9-2.9
		c0.9-0.7,2.1-0.8,2.7-0.1l1.1,1.3c0.6,0.7,0.4,1.9-0.5,2.6L10.2,36.3C9.4,37,8.2,37.1,7.6,36.4z"/>
	<path class="st1" d="M8.8,37.4c-0.6,0-1.2-0.2-1.6-0.7l-1.1-1.3c-0.8-0.9-0.6-2.4,0.5-3.3l7.9-10.7c3.2-4.4,7.3-8,11.9-10.8
		l4.9-2.9c0.4-0.4,1-0.6,1.7-0.7c0.7,0,1.2,0.2,1.6,0.7L35.7,9c0.8,0.9,0.6,2.4-0.5,3.3L10.6,36.6C10.1,37.1,9.4,37.3,8.8,37.4
		C8.8,37.4,8.8,37.4,8.8,37.4z M33.1,8.1C33,8.1,33,8.1,33.1,8.1c-0.4,0-0.8,0.2-1.2,0.5l-5,3c-4.6,2.7-8.5,6.3-11.7,10.5l-8,10.8
		c-0.6,0.6-0.8,1.4-0.4,1.9L8,36c0.2,0.2,0.5,0.3,0.8,0.3c0.4,0,0.8-0.2,1.1-0.5l24.6-24.3c0.7-0.6,0.9-1.5,0.4-1.9l-1.1-1.3
		C33.7,8.2,33.4,8.1,33.1,8.1z"/>
</g>
<g>
	<path class="st0" d="M33.4,14.3c0,0-0.7,0-0.2-0.8c0.1-0.2,0.1-0.4,0.1-0.6c0.1-5.4-3.5-4.8-3.5-4.8c-1.2-0.1-2.1-1.5-2.1-3.1
		s2.3-3.4,2.3-3.4S33.8-0.4,35,1C36.1,2.5,35,4,35,4s4.8,0.2,5.8,3.1C40.9,7.1,41.3,12.1,33.4,14.3z"/>
	<path class="st1" d="M33.4,14.8C33.4,14.8,33.4,14.8,33.4,14.8c-0.2,0-0.6-0.1-0.8-0.4c-0.2-0.3-0.2-0.7,0.1-1.2
		c0-0.1,0.1-0.2,0.1-0.4c0-1.8-0.4-3.1-1.1-3.8c-0.8-0.7-1.8-0.6-1.8-0.6c0,0-0.1,0-0.1,0c-1.4-0.1-2.5-1.7-2.5-3.6
		c0-1.8,2.3-3.6,2.5-3.8c0.5-0.3,4.2-2.3,5.6-0.5c0.8,1,0.7,2.1,0.5,2.9c1.5,0.2,4.7,0.9,5.5,3.3c0,0,0,0.1,0,0.1
		c0,0.2,0.4,5.4-7.8,7.7C33.5,14.8,33.5,14.8,33.4,14.8z M30.1,7.5c0.5,0,1.4,0.1,2.2,0.8c1,0.9,1.5,2.4,1.5,4.6
		c0,0.3-0.1,0.6-0.2,0.8c0,0,0,0,0,0c6.7-2,6.8-6,6.8-6.5c-0.9-2.5-5.3-2.7-5.4-2.7c-0.2,0-0.3-0.1-0.4-0.3s-0.1-0.4,0-0.5
		c0,0,0.9-1.2-0.1-2.4c-0.7-0.9-3.2,0.1-4.3,0.7c-0.5,0.4-2.1,1.8-2.1,2.9c0,1.3,0.7,2.5,1.6,2.6C29.9,7.5,30,7.5,30.1,7.5z"/>
</g>
<g>
	<path class="st0" d="M11.4,36.5c0,0-0.7,0.1-0.3-0.8c0.1-0.2,0.1-0.4,0.1-0.6c-0.6-5.4-4.1-4.3-4.1-4.3c-1.2,0-2.2-1.2-2.5-2.8
		c-0.2-1.6,1.9-3.6,1.9-3.6s3.4-2.5,4.8-1.2c1.4,1.3,0.5,3,0.5,3s4.8-0.5,6.2,2.3C17.8,28.4,18.9,33.3,11.4,36.5z"/>
	<path class="st1" d="M11.3,37c-0.2,0-0.5-0.1-0.7-0.3c-0.2-0.3-0.3-0.7-0.1-1.2c0-0.1,0-0.2,0-0.4c-0.2-1.8-0.8-3-1.6-3.6
		c-0.9-0.6-1.8-0.3-1.8-0.3c0,0-0.1,0-0.1,0c-1.4,0.1-2.7-1.3-3-3.2c-0.2-1.8,1.8-3.8,2-4.1c0.4-0.3,3.8-2.8,5.5-1.2
		c0.9,0.9,1,2,0.9,2.8c1.5,0,4.7,0.2,5.9,2.6c0,0,0,0.1,0,0.1c0,0.2,1.1,5.3-6.7,8.7c0,0-0.1,0-0.1,0C11.4,37,11.4,37,11.3,37z
		 M7.7,30.2c0.5,0,1.2,0.1,1.8,0.5c1.1,0.7,1.9,2.2,2.1,4.3c0,0.3,0,0.6-0.1,0.8c0,0,0,0,0,0c6.3-2.9,5.9-6.8,5.8-7.4
		c-1.3-2.3-5.6-1.9-5.7-1.9c-0.2,0-0.4-0.1-0.5-0.2s-0.1-0.4,0-0.5c0-0.1,0.7-1.4-0.4-2.4C10,22.8,7.6,24,6.7,24.8
		c-0.5,0.5-1.8,2.1-1.7,3.2c0.2,1.3,1,2.3,1.9,2.4C7,30.3,7.3,30.2,7.7,30.2z"/>
</g>
<g>
	<path class="st2" d="M49.8,18.7c-0.1,0-0.3-0.1-0.4-0.2c-0.8-0.9-1.4-1.2-1.4-1.2c-0.2-0.1-0.3-0.5-0.2-0.7
		c0.1-0.2,0.5-0.3,0.7-0.2c0,0,0.7,0.4,1.6,1.4c0.2,0.2,0.2,0.5,0,0.7C50.1,18.7,49.9,18.7,49.8,18.7z"/>
	<path class="st2" d="M55.1,30.9c-0.2,0-0.4-0.2-0.5-0.4c-0.2-1.1-0.4-2.2-0.7-3.2c-0.1-0.3,0.1-0.5,0.3-0.6
		c0.3-0.1,0.5,0.1,0.6,0.3c0.3,1.1,0.5,2.2,0.7,3.3C55.6,30.6,55.5,30.8,55.1,30.9C55.2,30.9,55.1,30.9,55.1,30.9z M53.3,24.4
		c-0.2,0-0.4-0.1-0.5-0.3c-0.4-1.1-0.9-2-1.5-2.9c-0.1-0.2-0.1-0.5,0.2-0.7c0.2-0.1,0.5-0.1,0.7,0.2c0.6,0.9,1.1,2,1.5,3.1
		c0.1,0.3,0,0.5-0.3,0.7C53.4,24.4,53.4,24.4,53.3,24.4z"/>
	<path class="st2" d="M55.7,36.2c-0.3,0-0.5-0.2-0.5-0.5c0-0.7-0.1-1.3-0.2-2c0-0.3,0.2-0.5,0.4-0.5c0.3,0,0.5,0.2,0.5,0.4
		c0.1,0.6,0.1,1.3,0.2,2C56.2,36,56,36.2,55.7,36.2C55.7,36.2,55.7,36.2,55.7,36.2z"/>
</g>
<g>
	<path class="st2" d="M45.3,22.3c-0.2,0-0.3-0.1-0.4-0.2c-0.7-0.9-1.2-1.4-1.2-1.4c-0.2-0.2-0.2-0.5,0-0.7c0.2-0.2,0.5-0.2,0.7,0
		c0,0,0.6,0.5,1.4,1.6c0.2,0.2,0.1,0.5-0.1,0.7C45.5,22.3,45.4,22.3,45.3,22.3z"/>
	<path class="st2" d="M49.5,34.2c-0.3,0-0.5-0.2-0.5-0.5c-0.1-1.1-0.2-2.1-0.4-3.1c-0.1-0.3,0.1-0.5,0.4-0.6
		c0.3-0.1,0.5,0.1,0.6,0.4c0.2,1.1,0.4,2.1,0.4,3.2C50,34,49.8,34.2,49.5,34.2C49.5,34.2,49.5,34.2,49.5,34.2z M48.2,28
		c-0.2,0-0.4-0.1-0.5-0.3c-0.3-1-0.8-2-1.2-2.9c-0.1-0.2,0-0.5,0.2-0.7c0.2-0.1,0.5,0,0.7,0.2c0.5,1,0.9,2,1.3,3
		c0.1,0.3,0,0.5-0.3,0.6C48.4,28,48.3,28,48.2,28z"/>
	<path class="st2" d="M49.4,39.5C49.3,39.5,49.3,39.5,49.4,39.5c-0.3,0-0.5-0.3-0.5-0.6c0.1-0.7,0.1-1.3,0.2-2
		c0-0.3,0.3-0.5,0.5-0.5c0.3,0,0.5,0.2,0.5,0.5c0,0.7-0.1,1.4-0.2,2C49.8,39.3,49.6,39.5,49.4,39.5z"/>
</g>
<g>
	<path class="st2" d="M40.3,26.1c-0.2,0-0.4-0.1-0.5-0.3c-0.5-1.1-1-1.5-1-1.5c-0.2-0.2-0.2-0.5,0-0.7c0.2-0.2,0.5-0.2,0.7,0
		c0.1,0.1,0.6,0.6,1.2,1.8c0.1,0.2,0,0.5-0.2,0.7C40.5,26,40.4,26.1,40.3,26.1z"/>
	<path class="st2" d="M41.9,38.4C41.9,38.4,41.9,38.4,41.9,38.4c-0.3,0-0.5-0.3-0.5-0.5c0-0.9,0.1-1.7,0.1-2.5c0-0.2,0-0.4,0-0.6
		c0-0.3,0.2-0.5,0.5-0.5c0.3,0,0.5,0.2,0.5,0.5c0,0.2,0,0.4,0,0.6c0,0.8,0,1.7-0.1,2.6C42.4,38.2,42.2,38.4,41.9,38.4z M41.8,32.1
		c-0.3,0-0.5-0.2-0.5-0.4c-0.1-1.1-0.3-2.1-0.5-3c-0.1-0.3,0.1-0.5,0.4-0.6c0.3-0.1,0.5,0.1,0.6,0.4c0.2,1,0.4,2,0.5,3.2
		C42.4,31.8,42.2,32.1,41.8,32.1C41.9,32.1,41.8,32.1,41.8,32.1z"/>
	<path class="st2" d="M41.5,43.5C41.4,43.5,41.4,43.5,41.5,43.5c-0.3,0-0.5-0.3-0.5-0.6c0.1-0.7,0.2-1.3,0.2-2
		c0-0.3,0.3-0.5,0.5-0.4c0.3,0,0.5,0.3,0.4,0.5c-0.1,0.6-0.1,1.3-0.2,2C41.9,43.3,41.7,43.5,41.5,43.5z"/>
</g>
</svg>
