<?xml version="1.0" encoding="utf-8"?>
<!-- Generator: Adobe Illustrator 19.2.0, SVG Export Plug-In . SVG Version: 6.00 Build 0)  -->
<svg version="1.1" id="Слой_1" xmlns="http://www.w3.org/2000/svg" xmlns:xlink="http://www.w3.org/1999/xlink" x="0px" y="0px"
	 viewBox="0 0 52 55" style="enable-background:new 0 0 52 55;" xml:space="preserve">
<style type="text/css">
	.st0{opacity:0.37;}
	.st1{fill:url(#SVGID_1_);stroke:url(#SVGID_2_);stroke-miterlimit:10;}
	.st2{fill:#CDF4BC;}
	.st3{fill:url(#SVGID_3_);}
	.st4{opacity:0.23;fill:#020202;}
	.st5{fill:#FFFFFF;}
	.st6{opacity:0.27;}
	.st7{fill:url(#SVGID_4_);}
</style>
<path class="st0" d="M43,11.7C32.8,2.3,17,2.9,7.6,13.1S-1.1,39,9,48.4s26,8.7,35.3-1.4S53.1,21.1,43,11.7z M14.1,34.1
	c-2-1.9-2.2-5-0.3-7.1c1.9-2,5-2.2,7.1-0.3s2.2,5,0.3,7.1C19.3,35.8,16.2,35.9,14.1,34.1z M22.3,25.2c-2-1.9-2.2-5-0.3-7.1
	c1.9-2,5-2.2,7.1-0.3s2.2,5,0.3,7.1C27.5,27,24.3,27.1,22.3,25.2z M22.9,42.2c-2-1.9-2.2-5-0.3-7.1c1.9-2,5-2.2,7.1-0.3
	c2,1.9,2.2,5,0.3,7.1C28.1,43.9,25,44.1,22.9,42.2z M31.1,33.4c-2-1.9-2.2-5-0.3-7.1c1.9-2,5-2.2,7.1-0.3c2,1.9,2.2,5,0.3,7.1
	C36.3,35.1,33.1,35.3,31.1,33.4z"/>
<g>
	
		<linearGradient id="SVGID_1_" gradientUnits="userSpaceOnUse" x1="16.6003" y1="2.6069" x2="33.0288" y2="49.8372" gradientTransform="matrix(0.5852 0.8109 -0.8109 0.5852 32.7404 -9.4795)">
		<stop  offset="0" style="stop-color:#A3CB64"/>
		<stop  offset="1" style="stop-color:#BDEBA4"/>
	</linearGradient>
	
		<linearGradient id="SVGID_2_" gradientUnits="userSpaceOnUse" x1="-0.6903" y1="26.2221" x2="50.3195" y2="26.2221" gradientTransform="matrix(0.5852 0.8109 -0.8109 0.5852 32.7404 -9.4795)">
		<stop  offset="0" style="stop-color:#F2CF92"/>
		<stop  offset="1" style="stop-color:#F4D69A"/>
	</linearGradient>
	<path class="st1" d="M43,7.6C32.8-1.7,17-1.1,7.6,9S-1.1,35,9,44.4s26,8.7,35.3-1.4S53.1,17,43,7.6z M14.1,30c-2-1.9-2.2-5-0.3-7.1
		c1.9-2,5-2.2,7.1-0.3s2.2,5,0.3,7.1C19.3,31.7,16.2,31.9,14.1,30z M22.3,21.2c-2-1.9-2.2-5-0.3-7.1c1.9-2,5-2.2,7.1-0.3
		s2.2,5,0.3,7.1C27.5,22.9,24.3,23.1,22.3,21.2z M22.9,38.1c-2-1.9-2.2-5-0.3-7.1c1.9-2,5-2.2,7.1-0.3c2,1.9,2.2,5,0.3,7.1
		C28.1,39.9,25,40,22.9,38.1z M31.1,29.3c-2-1.9-2.2-5-0.3-7.1c1.9-2,5-2.2,7.1-0.3c2,1.9,2.2,5,0.3,7.1
		C36.3,31.1,33.1,31.2,31.1,29.3z"/>
	<path class="st2" d="M4.9,41.2c-3-4.1-4.7-9-4.9-14.1c-0.3-6.9,2.2-13.6,6.9-18.7C16.6-2.2,33.1-2.8,43.6,6.9l0,0
		c10.5,9.7,11.2,26.2,1.5,36.7C40.4,48.7,34,51.7,27,52c-6.9,0.3-13.6-2.2-18.7-6.9C7.1,43.9,5.9,42.6,4.9,41.2z M42.3,8.4
		C32.6-0.6,17.4,0,8.4,9.7C4,14.4,1.8,20.5,2,26.9c0.3,6.4,3,12.3,7.7,16.7c4.7,4.4,10.8,6.6,17.2,6.4c6.4-0.3,12.3-3,16.7-7.7
		C52.6,32.6,52,17.3,42.3,8.4L42.3,8.4z M12.6,29.8c-0.7-0.9-1.1-2.1-1.1-3.3c-0.1-1.6,0.5-3.1,1.6-4.3c1.1-1.2,2.6-1.9,4.2-1.9
		c1.6-0.1,3.1,0.5,4.3,1.6c-2.4-2.2-2.5-6-0.3-8.5c2.2-2.4,6-2.6,8.5-0.3c1.2,1.1,1.9,2.6,1.9,4.2c0.1,1.6-0.5,3.1-1.6,4.3
		c-1.1,1.2-2.6,1.9-4.2,1.9c-1.6,0.1-3.1-0.5-4.3-1.6c1.2,1.1,1.8,2.6,1.9,4.1c0.1,1.6-0.5,3.1-1.6,4.3c-2.2,2.4-6,2.6-8.5,0.3l0,0
		C13.1,30.5,12.9,30.2,12.6,29.8z M20.8,24c-0.2-0.2-0.3-0.4-0.5-0.6c-0.8-0.7-1.8-1.1-2.9-1.1c-1.1,0-2.1,0.5-2.8,1.3
		c-0.7,0.8-1.1,1.8-1.1,2.9c0,1.1,0.5,2.1,1.3,2.8c1.6,1.5,4.2,1.4,5.7-0.2c0.7-0.8,1.1-1.8,1.1-2.9C21.5,25.4,21.2,24.6,20.8,24z
		 M28.9,15.2c-0.2-0.2-0.3-0.4-0.5-0.6c-1.6-1.5-4.2-1.4-5.7,0.2c-1.5,1.6-1.4,4.2,0.2,5.7c0.8,0.7,1.8,1.1,2.9,1.1
		c1.1,0,2.1-0.5,2.8-1.3c0.7-0.8,1.1-1.8,1.1-2.9C29.6,16.6,29.4,15.8,28.9,15.2z M21.5,38c-0.7-0.9-1.1-2.1-1.1-3.3
		c-0.1-1.6,0.5-3.1,1.6-4.3c2.2-2.4,6-2.6,8.4-0.4c-2.4-2.2-2.5-6-0.3-8.4c1.1-1.2,2.6-1.9,4.2-1.9c1.6-0.1,3.1,0.5,4.3,1.6
		c2.4,2.2,2.6,6,0.3,8.5c-2.2,2.4-6,2.6-8.4,0.4c2.4,2.2,2.5,6,0.3,8.4c-2.2,2.4-6.1,2.6-8.5,0.3l0,0C22,38.6,21.7,38.3,21.5,38z
		 M29.6,32.1c-0.2-0.2-0.3-0.4-0.5-0.6c-1.6-1.5-4.2-1.4-5.7,0.2c-0.7,0.8-1.1,1.8-1.1,2.9c0,1.1,0.5,2.1,1.3,2.8l0,0
		c0.8,0.7,1.8,1.1,2.9,1.1c1.1,0,2.1-0.5,2.8-1.3c0.7-0.8,1.1-1.8,1.1-2.9C30.3,33.5,30,32.8,29.6,32.1z M37.7,23.3
		c-0.2-0.2-0.3-0.4-0.5-0.6c-0.8-0.7-1.8-1.1-2.9-1.1c-1.1,0-2.1,0.5-2.8,1.3c-1.5,1.6-1.4,4.2,0.2,5.7c1.6,1.5,4.2,1.4,5.7-0.2
		C38.7,26.9,38.8,24.8,37.7,23.3z"/>
</g>
<g>
	
		<linearGradient id="SVGID_3_" gradientUnits="userSpaceOnUse" x1="24.8146" y1="21.5321" x2="24.8146" y2="31.2922" gradientTransform="matrix(0.5852 0.8109 -0.8109 0.5852 32.7404 -9.4795)">
		<stop  offset="0" style="stop-color:#E57575"/>
		<stop  offset="1" style="stop-color:#AF4747"/>
	</linearGradient>
	<line class="st3" x1="25.7" y1="17.5" x2="26" y2="34.7"/>
	<path class="st4" d="M25.8,36.5c-0.2-0.2-0.3-0.5-0.3-0.8l-0.4-17.2c0-0.8,0.6-1.5,1.5-1.5c0.8,0,1.5,0.6,1.5,1.5l0.4,17.2
		c0,0.8-0.6,1.5-1.5,1.5C26.5,37.2,26.1,36.9,25.8,36.5z"/>
	<path class="st5" d="M24.8,35.6c-0.2-0.2-0.3-0.5-0.3-0.8l-0.4-17.2c0-0.8,0.6-1.5,1.5-1.5c0.8,0,1.5,0.6,1.5,1.5l0.4,17.2
		c0,0.8-0.6,1.5-1.5,1.5C25.5,36.2,25.1,36,24.8,35.6z"/>
</g>
<g>
	<path class="st6" d="M17.1,28.6c-0.2-0.2-0.3-0.5-0.3-0.8c0-0.8,0.6-1.5,1.5-1.5l16.6-0.4c0.8,0,1.5,0.6,1.5,1.5
		c0,0.8-0.6,1.5-1.5,1.5l-16.6,0.4C17.8,29.2,17.4,29,17.1,28.6z"/>
</g>
<g>
	
		<linearGradient id="SVGID_4_" gradientUnits="userSpaceOnUse" x1="24.8146" y1="19.5309" x2="24.8146" y2="33.2934" gradientTransform="matrix(0.5852 0.8109 -0.8109 0.5852 32.7404 -9.4795)">
		<stop  offset="0" style="stop-color:#E57575"/>
		<stop  offset="1" style="stop-color:#AF4747"/>
	</linearGradient>
	<line class="st7" x1="17.5" y1="26.3" x2="34.2" y2="25.9"/>
	<path class="st5" d="M16.3,27.2C16.1,27,16,26.7,16,26.4c0-0.8,0.6-1.5,1.5-1.5l16.6-0.4c0.8,0,1.5,0.6,1.5,1.5
		c0,0.8-0.6,1.5-1.5,1.5l-16.6,0.4C17,27.8,16.6,27.6,16.3,27.2z"/>
</g>
</svg>
