<?xml version="1.0" encoding="utf-8"?>
<!-- Generator: Adobe Illustrator 19.2.0, SVG Export Plug-In . SVG Version: 6.00 Build 0)  -->
<svg version="1.1" id="Слой_1" xmlns="http://www.w3.org/2000/svg" xmlns:xlink="http://www.w3.org/1999/xlink" x="0px" y="0px"
	 viewBox="0 0 57 58.2" style="enable-background:new 0 0 57 58.2;" xml:space="preserve">
<style type="text/css">
	.st0{opacity:0.4;}
	.st1{fill:url(#SVGID_1_);}
	.st2{fill:#B13E2C;}
	.st3{fill:url(#SVGID_2_);}
	.st4{fill:#FFFFFF;}
	.st5{fill:url(#SVGID_3_);}
</style>
<path class="st0" d="M53.3,8.4L11.5,4.8C9.3,4.6,7.3,6.2,7.1,8.4L3.5,50.3c-0.2,2.2,1.4,4.1,3.6,4.3L49,58.2
	c2.2,0.2,4.1-1.4,4.3-3.6L57,12.7C57.2,10.5,55.5,8.6,53.3,8.4z M23.3,42.2c-2.8-0.2-4.8-2.7-4.5-5.4c0.2-2.8,2.7-4.8,5.4-4.5
	c2.8,0.2,4.8,2.7,4.5,5.4C28.5,40.5,26,42.5,23.3,42.2z M24.3,30.3c-2.8-0.2-4.8-2.7-4.5-5.4c0.2-2.8,2.7-4.8,5.4-4.5
	c2.8,0.2,4.8,2.7,4.5,5.4S27.1,30.5,24.3,30.3z M35.2,43.3c-2.8-0.2-4.8-2.7-4.5-5.4c0.2-2.8,2.7-4.8,5.4-4.5
	c2.8,0.2,4.8,2.7,4.5,5.4C40.4,41.5,38,43.5,35.2,43.3z M36.3,31.3c-2.8-0.2-4.8-2.7-4.5-5.4c0.2-2.8,2.7-4.8,5.4-4.5
	c2.8,0.2,4.8,2.7,4.5,5.4C41.5,29.5,39,31.6,36.3,31.3z"/>
<g>
	
		<linearGradient id="SVGID_1_" gradientUnits="userSpaceOnUse" x1="27.0772" y1="2.4189" x2="27.0772" y2="52.4286" gradientTransform="matrix(0.9963 8.647140e-02 -8.647140e-02 0.9963 2.6382 -2.4191)">
		<stop  offset="0" style="stop-color:#F5705B"/>
		<stop  offset="1" style="stop-color:#B13E2C"/>
	</linearGradient>
	<path class="st1" d="M50.3,4.1L8.5,0.5C6.3,0.3,4.3,2,4.1,4.2L0.5,46c-0.2,2.2,1.4,4.1,3.6,4.3L46,54c2.2,0.2,4.1-1.4,4.3-3.6
		L54,8.5C54.2,6.3,52.5,4.3,50.3,4.1z M20.3,38c-2.8-0.2-4.8-2.7-4.5-5.4c0.2-2.8,2.7-4.8,5.4-4.5s4.8,2.7,4.5,5.4
		C25.5,36.2,23,38.2,20.3,38z M21.3,26c-2.8-0.2-4.8-2.7-4.5-5.4c0.2-2.8,2.7-4.8,5.4-4.5c2.8,0.2,4.8,2.7,4.5,5.4
		S24.1,26.3,21.3,26z M32.2,39c-2.8-0.2-4.8-2.7-4.5-5.4c0.2-2.8,2.7-4.8,5.4-4.5s4.8,2.7,4.5,5.4C37.4,37.2,35,39.3,32.2,39z
		 M33.3,27.1c-2.8-0.2-4.8-2.7-4.5-5.4c0.2-2.8,2.7-4.8,5.4-4.5c2.8,0.2,4.8,2.7,4.5,5.4C38.5,25.3,36,27.3,33.3,27.1z"/>
	<path class="st2" d="M46.4,54.5c-0.1,0-0.3,0-0.4,0L4.1,50.8C1.6,50.6-0.2,48.4,0,46L3.6,4.1c0.1-1.2,0.7-2.3,1.6-3.1
		c0.9-0.8,2.1-1.1,3.3-1l41.9,3.6c1.2,0.1,2.3,0.7,3.1,1.6c0.8,0.9,1.1,2.1,1,3.3l-3.6,41.9C50.6,52.7,48.7,54.5,46.4,54.5z M8.1,1
		C7.3,1,6.5,1.3,5.9,1.8C5.2,2.4,4.7,3.3,4.6,4.2L1,46c-0.2,1.9,1.3,3.6,3.2,3.8L46,53.5c1.9,0.2,3.6-1.3,3.8-3.2l3.6-41.9
		c0.1-0.9-0.2-1.8-0.8-2.6s-1.4-1.2-2.4-1.2L8.4,1C8.3,1,8.2,1,8.1,1z M32.7,39.5c-0.2,0-0.3,0-0.5,0l0,0c-1.5-0.1-2.8-0.8-3.7-1.9
		s-1.4-2.6-1.3-4c0.1-1.5,0.8-2.8,1.9-3.7c1.1-0.9,2.6-1.4,4-1.3c1.5,0.1,2.8,0.8,3.7,1.9c0.9,1.1,1.4,2.6,1.3,4
		c-0.1,1.5-0.8,2.8-1.9,3.7C35.2,39.1,34,39.5,32.7,39.5z M32.7,29.5c-1.1,0-2.1,0.4-2.9,1.1c-0.9,0.8-1.5,1.9-1.6,3.1
		s0.3,2.4,1,3.3s1.9,1.5,3.1,1.6l0,0c1.2,0.1,2.4-0.3,3.3-1s1.5-1.9,1.6-3.1c0.1-1.2-0.3-2.4-1-3.3c-0.8-0.9-1.9-1.5-3.1-1.6
		C32.9,29.6,32.8,29.5,32.7,29.5z M20.7,38.5c-0.2,0-0.3,0-0.5,0h0c-3-0.3-5.3-2.9-5-6c0.3-3,2.9-5.3,6-5c3,0.3,5.3,2.9,5,6
		C26,36.3,23.5,38.5,20.7,38.5z M20.3,37.5c2.5,0.2,4.7-1.6,4.9-4.1c0.1-1.2-0.3-2.4-1-3.3s-1.9-1.5-3.1-1.6
		c-2.5-0.2-4.7,1.6-4.9,4.1C16,35.1,17.9,37.3,20.3,37.5L20.3,37.5z M33.7,27.6c-0.2,0-0.3,0-0.5,0c-1.5-0.1-2.8-0.8-3.7-1.9
		c-0.9-1.1-1.4-2.6-1.3-4c0.3-3,2.9-5.3,6-5c3,0.3,5.3,2.9,5,6C38.9,25.4,36.5,27.6,33.7,27.6z M33.7,17.6c-2.3,0-4.3,1.8-4.5,4.1
		c-0.1,1.2,0.3,2.4,1,3.3s1.9,1.5,3.1,1.6c2.5,0.2,4.7-1.6,4.9-4.1c0.2-2.5-1.6-4.7-4.1-4.9C34,17.6,33.8,17.6,33.7,17.6z
		 M21.8,26.6c-0.2,0-0.3,0-0.5,0c-3-0.3-5.3-2.9-5-6c0.1-1.5,0.8-2.8,1.9-3.7s2.5-1.4,4-1.3c3,0.3,5.3,2.9,5,6
		C27,24.4,24.6,26.6,21.8,26.6z M21.7,16.6c-1.1,0-2.1,0.4-2.9,1.1c-0.9,0.8-1.5,1.9-1.6,3.1c-0.2,2.5,1.6,4.7,4.1,4.9
		c1.2,0.1,2.4-0.3,3.3-1c0.9-0.8,1.5-1.9,1.6-3.1c0.2-2.5-1.6-4.7-4.1-4.9C22,16.6,21.9,16.6,21.7,16.6z"/>
</g>
<g>
	
		<linearGradient id="SVGID_2_" gradientUnits="userSpaceOnUse" x1="27.1326" y1="23.4808" x2="27.1326" y2="33.2409" gradientTransform="matrix(0.9678 0.2518 -0.2518 0.9678 8.1245 -6.2678)">
		<stop  offset="0" style="stop-color:#E57575"/>
		<stop  offset="1" style="stop-color:#AF4747"/>
	</linearGradient>
	<line class="st3" x1="21.6" y1="21.5" x2="32.9" y2="34.5"/>
	<path class="st4" d="M32.9,36c-0.4,0-0.8-0.2-1.1-0.5l-11.2-13c-0.5-0.6-0.5-1.6,0.2-2.1c0.6-0.5,1.6-0.5,2.1,0.2l11.2,13
		c0.5,0.6,0.5,1.6-0.2,2.1C33.6,35.9,33.2,36,32.9,36z"/>
</g>
<g>
	
		<linearGradient id="SVGID_3_" gradientUnits="userSpaceOnUse" x1="27.1326" y1="21.4796" x2="27.1326" y2="35.2421" gradientTransform="matrix(0.9678 0.2518 -0.2518 0.9678 8.1245 -6.2678)">
		<stop  offset="0" style="stop-color:#E57575"/>
		<stop  offset="1" style="stop-color:#AF4747"/>
	</linearGradient>
	<line class="st5" x1="21" y1="33.5" x2="33.5" y2="22.5"/>
	<path class="st4" d="M21,35c-0.4,0-0.8-0.2-1.1-0.5c-0.5-0.6-0.5-1.6,0.1-2.1l12.5-11c0.6-0.5,1.6-0.5,2.1,0.1
		c0.5,0.6,0.5,1.6-0.1,2.1L22,34.6C21.7,34.9,21.3,35,21,35z"/>
</g>
</svg>
