<?xml version="1.0" encoding="utf-8"?>
<!-- Generator: Adobe Illustrator 19.2.0, SVG Export Plug-In . SVG Version: 6.00 Build 0)  -->
<svg version="1.1" id="Слой_1" xmlns="http://www.w3.org/2000/svg" xmlns:xlink="http://www.w3.org/1999/xlink" x="0px" y="0px"
	 viewBox="0 0 52 55.3" style="enable-background:new 0 0 52 55.3;" xml:space="preserve">
<style type="text/css">
	.st0{opacity:0.37;enable-background:new    ;}
	.st1{fill:url(#SVGID_1_);stroke:url(#SVGID_2_);stroke-miterlimit:10;}
	.st2{fill:#CAF3FD;}
	.st3{fill:none;}
	.st4{opacity:0.23;fill:#020202;enable-background:new    ;}
	.st5{fill:#FFFFFF;}
	.st6{opacity:0.27;enable-background:new    ;}
</style>
<path class="st0" d="M25.8,5.3C12,5.4,0.9,16.7,1,30.5s11.3,24.9,25.1,24.8C39.9,55.2,51.1,44,51,30.2C50.9,16.4,39.6,5.2,25.8,5.3z
	 M20.1,41.4c-2.8,0-5-2.2-5-5s2.2-5,5-5s5,2.2,5,5C25,39.1,22.8,41.3,20.1,41.4z M20,29.4c-2.8,0-5-2.2-5-5s2.2-5,5-5s5,2.2,5,5
	C25,27.1,22.7,29.3,20,29.4z M32.1,41.3c-2.8,0-5-2.2-5-5s2.2-5,5-5s5,2.2,5,5C37,39,34.8,41.3,32.1,41.3z M32,29.3
	c-2.8,0-5-2.2-5-5s2.2-5,5-5s5,2.2,5,5C37,27,34.7,29.3,32,29.3z"/>
<g>
	
		<linearGradient id="SVGID_1_" gradientUnits="userSpaceOnUse" x1="70.3012" y1="107.9781" x2="70.3012" y2="57.9423" gradientTransform="matrix(0.9813 0.1926 0.1926 -0.9813 -58.9637 93.8675)">
		<stop  offset="0" style="stop-color:#86D2E6"/>
		<stop  offset="1" style="stop-color:#ABE0E6"/>
	</linearGradient>
	
		<linearGradient id="SVGID_2_" gradientUnits="userSpaceOnUse" x1="44.7814" y1="82.9602" x2="95.8211" y2="82.9602" gradientTransform="matrix(0.9813 0.1926 0.1926 -0.9813 -58.9637 93.8675)">
		<stop  offset="0" style="stop-color:#F2CF92"/>
		<stop  offset="1" style="stop-color:#F4D69A"/>
	</linearGradient>
	<path class="st1" d="M25.9,1C12,1.1,0.9,12.3,1,26.1s11.3,25,25.1,24.9C40,50.9,51.1,39.7,51,25.9C50.9,12,39.7,0.9,25.9,1z
		 M20.1,37c-2.8,0-5-2.2-5-5s2.2-5,5-5s5,2.2,5,5S22.8,37,20.1,37z M20,25c-2.8,0-5-2.2-5-5s2.2-5,5-5s5,2.2,5,5S22.8,25,20,25z
		 M32.1,37c-2.8,0-5-2.2-5-5s2.2-5,5-5s5,2.2,5,5C37.1,34.7,34.8,36.9,32.1,37z M32,25c-2.8,0-5-2.2-5-5s2.2-5,5-5s5,2.2,5,5
		C37,22.7,34.8,24.9,32,25z"/>
	<path class="st2" d="M20.9,51.5c-5-1-9.5-3.4-13.2-7C2.8,39.6,0,33.1,0,26.2C-0.1,11.8,11.5,0.1,25.8,0l0,0
		C40.2-0.1,51.9,11.5,52,25.8c0,6.9-2.6,13.5-7.5,18.4c-4.9,5-11.4,7.8-18.3,7.8C24.4,52,22.6,51.8,20.9,51.5z M25.9,2
		C12.6,2.1,1.9,12.9,2,26.1C2,32.5,4.6,38.5,9.1,43c4.6,4.5,10.6,7,17,6.9c6.4,0,12.4-2.6,16.9-7.1c4.5-4.6,7-10.6,6.9-17
		C49.9,12.6,39.1,1.9,25.9,2L25.9,2z M18.9,37.9c-1.1-0.2-2.2-0.8-3-1.6c-1.1-1.1-1.8-2.6-1.8-4.2c0-1.6,0.6-3.1,1.7-4.3
		c1.1-1.1,2.6-1.8,4.2-1.8c-3.3,0-6-2.7-6-6s2.7-6,6-6c1.6,0,3.1,0.6,4.3,1.7c1.1,1.1,1.8,2.6,1.8,4.2s-0.6,3.1-1.7,4.3
		C23.1,25.4,21.6,26,20,26c1.6,0,3.1,0.6,4.2,1.7s1.8,2.6,1.8,4.2c0,3.3-2.7,6-6,6l0,0C19.7,38,19.3,38,18.9,37.9z M20.8,28.1
		c-0.2,0-0.5-0.1-0.8-0.1c-1.1,0-2.1,0.4-2.8,1.2C16.4,30,16,31,16,32.1s0.4,2.1,1.2,2.8C18,35.6,19,36,20.1,36c2.2,0,4-1.8,4-4
		c0-1.1-0.4-2.1-1.2-2.8C22.3,28.6,21.6,28.3,20.8,28.1z M20.7,16.1C20.4,16,20.2,16,19.9,16c-2.2,0-4,1.8-4,4s1.8,4,4,4
		c1.1,0,2.1-0.4,2.8-1.2c0.8-0.8,1.2-1.8,1.2-2.8c0-1.1-0.4-2.1-1.2-2.8C22.2,16.6,21.5,16.3,20.7,16.1z M30.9,37.9
		c-1.1-0.2-2.2-0.8-3-1.6C26.7,35.1,26,33.6,26,32c0-3.3,2.6-6,5.9-6c-3.3,0-5.9-2.7-6-6c0-1.6,0.6-3.1,1.7-4.3
		c1.1-1.1,2.6-1.8,4.2-1.8c3.3,0,6,2.7,6,6s-2.6,6-5.9,6c3.3,0,5.9,2.7,6,6c0,3.3-2.7,6-6,6l0,0C31.7,38,31.3,37.9,30.9,37.9z
		 M32.8,28c-0.2,0-0.5,0-0.8,0c-2.2,0-4,1.8-4,4c0,1.1,0.4,2.1,1.2,2.8C30,35.6,31,36,32.1,36l0,0c1.1,0,2.1-0.4,2.8-1.2
		S36,33,36,31.9s-0.4-2.1-1.2-2.8C34.3,28.6,33.6,28.2,32.8,28z M32.7,16c-0.2,0-0.5,0-0.8,0c-1.1,0-2.1,0.4-2.8,1.2
		C28.4,17.9,28,18.9,28,20c0,2.2,1.8,4,4,4s4-1.8,4-4C36,18,34.6,16.4,32.7,16z"/>
</g>
<g>
	<line class="st3" x1="20" y1="20" x2="32" y2="32.3"/>
	<path class="st4" d="M31.3,35c-0.3-0.1-0.6-0.2-0.8-0.4l-12-12.3c-0.6-0.6-0.6-1.5,0-2.1s1.5-0.6,2.1,0l12,12.3
		c0.6,0.6,0.6,1.5,0,2.1C32.2,34.9,31.7,35.1,31.3,35z"/>
	<path class="st5" d="M31.7,33.8c-0.3-0.1-0.6-0.2-0.8-0.4l-12-12.3c-0.6-0.6-0.6-1.5,0-2.1s1.5-0.6,2.1,0l12,12.3
		c0.6,0.6,0.6,1.5,0,2.1C32.6,33.8,32.1,33.9,31.7,33.8z"/>
</g>
<g>
	<path class="st6" d="M20.5,34.7c-0.3-0.1-0.6-0.2-0.8-0.4c-0.6-0.6-0.6-1.5,0-2.1l11.9-11.7c0.6-0.6,1.5-0.6,2.1,0
		c0.6,0.6,0.6,1.5,0,2.1L21.9,34.3C21.5,34.6,21,34.8,20.5,34.7z"/>
</g>
<g>
	<line class="st3" x1="20" y1="32" x2="31.9" y2="20.3"/>
	<path class="st5" d="M19.7,33.5c-0.3-0.1-0.6-0.2-0.8-0.4c-0.6-0.6-0.6-1.5,0-2.1l11.9-11.7c0.6-0.6,1.5-0.6,2.1,0s0.6,1.5,0,2.1
		L21.1,33.1C20.7,33.5,20.2,33.6,19.7,33.5z"/>
</g>
</svg>
