<?xml version="1.0" encoding="utf-8"?>
<!-- Generator: Adobe Illustrator 19.2.0, SVG Export Plug-In . SVG Version: 6.00 Build 0)  -->
<svg version="1.1" id="Слой_1" xmlns="http://www.w3.org/2000/svg" xmlns:xlink="http://www.w3.org/1999/xlink" x="0px" y="0px"
	 viewBox="0 0 60 60" style="enable-background:new 0 0 60 60;" xml:space="preserve">
<style type="text/css">
	.st0{fill:#F4F4F4;}
	.st1{fill:#5193AB;}
	.st2{fill-rule:evenodd;clip-rule:evenodd;fill:#FFFFFF;}
</style>
<path class="st0" d="M54,60H6c-3.3,0-6-2.7-6-6l0.9-10.4c0.1-1.1,0.1-2.1,0-3.2L0,28.7V6c0-3.3,2.7-6,6-6h48c3.3,0,6,2.7,6,6
	l-0.9,19.7c0,0.8,0,1.7,0,2.5L60,54C60,57.3,57.3,60,54,60z"/>
<path class="st1" d="M49,55l-7.9-0.8c-1.1-0.1-2.1-0.1-3.2-0.1L20.9,55H11c-3.3,0-6-2.7-6-6l1-12.1c0-0.3,0-0.6,0-0.9L5,21.3V11
	c0-3.3,2.7-6,6-6h38c3.3,0,6,2.7,6,6v0c-0.7,2.7-1,5.5-0.9,8.2L55,49C55,52.3,52.3,55,49,55z"/>
<path class="st2" d="M38.2,30.7h-5.4c0,8.6,0,19.2,0,19.2h-8c0,0,0-10.5,0-19.2h-3.8v-6.8h3.8v-4.4c0-3.1,1.5-8,8-8l5.9,0v6.6
	c0,0-3.6,0-4.3,0c-0.7,0-1.7,0.3-1.7,1.8v4h6.1L38.2,30.7z"/>
</svg>
